#!OML:ASF F:\twosubjects\two\Thursday\Session 1\Rory.ASF
:FULLY-SPECIFIED
:DEGREES
488
root 12.0301 18.4451 -9.26009 1.34521 54.6577 -2.36669
lowerback 1.38663 -2.24836 -6.01535
upperback 4.28473 -2.79786 -2.5669
thorax 3.82229 -1.51944 0.649665
lowerneck 4.00053 -14.6309 -13.4997
upperneck 17.9372 -21.4716 11.4054
head 7.59565 -10.6233 4.2409
rclavicle -4.77083e-014 -7.95139e-015
rhumerus 4.87327 -29.7207 -43.4212
rradius 58.2715
rwrist 35.7073
rhand -14.8351 17.1954
rfingers 7.12502
rthumb 11.3238 -12.4789
lclavicle -4.77083e-014 -7.95139e-015
lhumerus -30.3087 9.97186 70.9923
lradius 25.4687
lwrist -24.3844
lhand -7.79627 30.2461
lfingers 7.12502
lthumb 18.1049 59.4235
rfemur -22.1662 4.69945 9.49197
rtibia 30.0094
rfoot -8.41161 -10.1237
rtoes -4.08544
lfemur -4.44458 0.687062 -21.1131
ltibia 15.953
lfoot -14.9406 15.3162
ltoes 12.875
489
root 12.0546 18.4503 -9.24188 1.16069 54.6245 -2.65434
lowerback 1.20595 -2.41556 -5.88258
upperback 4.40139 -3.01098 -2.34076
thorax 4.0632 -1.63339 0.790551
lowerneck 3.56443 -14.5319 -13.7638
upperneck 17.9984 -21.2968 11.3846
head 7.69338 -10.5368 4.25261
rclavicle 7.63333e-014 -4.77083e-015
rhumerus 5.64363 -29.1553 -43.1426
rradius 58.0601
rwrist 35.1274
rhand -11.4722 15.6246
rfingers 7.12502
rthumb 14.5656 -13.844
lclavicle 7.63333e-014 -4.77083e-015
lhumerus -30.3176 11.0816 70.7975
lradius 25.0809
lwrist -25.004
lhand -8.14672 29.4972
lfingers 7.12502
lthumb 17.7677 58.7054
rfemur -22.0245 4.50366 10.0016
rtibia 29.3146
rfoot -8.8575 -10.7494
rtoes -1.57096
lfemur -4.30001 0.0268429 -20.9658
ltibia 15.8518
lfoot -15.1759 16.0223
ltoes 12.8723
490
root 12.0759 18.4438 -9.2313 1.68566 54.6093 -2.03815
lowerback 1.8973 -2.42711 -5.87632
upperback 3.85068 -3.11033 -2.51713
thorax 3.09228 -1.65286 0.656284
lowerneck 3.97445 -14.4638 -13.8833
upperneck 18.3595 -21.2557 11.2898
head 7.74185 -10.539 4.27267
rclavicle -2.82274e-014 4.29375e-014
rhumerus 5.19977 -28.3325 -42.3977
rradius 57.7128
rwrist 34.1724
rhand -8.979 14.8912
rfingers 7.12502
rthumb 16.9666 -14.3878
lclavicle -2.82274e-014 4.29375e-014
lhumerus -31.261 11.1174 70.3432
lradius 24.8537
lwrist -25.5178
lhand -8.60936 29.1018
lfingers 7.12502
lthumb 17.3224 58.3499
rfemur -21.9505 4.21746 9.91133
rtibia 28.6773
rfoot -9.02272 -11.1822
rtoes -1.7314
lfemur -4.16458 0.357769 -21.3713
ltibia 15.6671
lfoot -14.8032 15.9354
ltoes 11.4858
491
root 12.0901 18.4333 -9.22258 2.1147 54.4864 -1.55965
lowerback 2.09718 -2.47391 -6.14845
upperback 3.709 -3.19492 -2.59071
thorax 2.84999 -1.69367 0.744003
lowerneck 4.17777 -14.4714 -13.5346
upperneck 18.2497 -21.2534 11.1637
head 7.6163 -10.5348 4.20869
rclavicle 4.96962e-015 3.49861e-014
rhumerus 5.63425 -27.7622 -42.0536
rradius 57.0115
rwrist 33.6144
rhand -8.96901 15.1275
rfingers 7.12502
rthumb 16.9763 -14.1507
lclavicle 4.96962e-015 3.49861e-014
lhumerus -31.5871 11.1768 70.1824
lradius 24.6865
lwrist -25.4685
lhand -8.44106 29.9236
lfingers 7.12502
lthumb 17.4844 59.1573
rfemur -21.9976 4.02108 9.8891
rtibia 28.0842
rfoot -9.44142 -11.4874
rtoes -0.800643
lfemur -4.06242 0.897265 -21.694
ltibia 15.461
lfoot -14.3371 15.7864
ltoes 10.251
492
root 12.108 18.4354 -9.20539 2.2453 54.334 -1.48449
lowerback 1.97815 -2.46934 -6.35713
upperback 3.75465 -3.17698 -2.54362
thorax 2.97947 -1.69465 0.899941
lowerneck 4.29082 -14.5562 -13.1732
upperneck 17.9653 -21.3624 11.1976
head 7.47999 -10.5742 4.17444
rclavicle -1.07145e-013 4.77083e-015
rhumerus 6.24381 -27.436 -41.6649
rradius 56.2313
rwrist 33.2293
rhand -9.17831 15.4635
rfingers 7.12502
rthumb 16.7748 -13.8318
lclavicle -1.07145e-013 4.77083e-015
lhumerus -31.6553 10.957 70.252
lradius 24.5258
lwrist -25.2551
lhand -8.31108 30.4225
lfingers 7.12502
lthumb 17.6095 59.645
rfemur -22.0148 3.73968 10.1912
rtibia 27.5039
rfoot -9.75528 -11.794
rtoes -1.04954
lfemur -3.92237 0.508245 -21.7692
ltibia 15.2389
lfoot -14.62 16.3747
ltoes 10.539
493
root 12.1328 18.4436 -9.18806 2.33988 54.0997 -1.5616
lowerback 1.7361 -2.46513 -6.3912
upperback 3.74145 -3.1556 -2.45439
thorax 3.10786 -1.6901 0.99937
lowerneck 4.51512 -14.5338 -13.0666
upperneck 17.6386 -21.3569 11.3955
head 7.34321 -10.5709 4.24894
rclavicle 3.598e-014 1.11319e-014
rhumerus 7.01251 -27.1538 -41.2901
rradius 55.5555
rwrist 32.0083
rhand -6.79532 14.8903
rfingers 7.12502
rthumb 19.0677 -14.1951
lclavicle 3.598e-014 1.11319e-014
lhumerus -31.7691 11.1874 70.1979
lradius 24.1717
lwrist -25.4598
lhand -8.46254 30.3012
lfingers 7.12502
lthumb 17.4637 59.5367
rfemur -22.099 3.44563 10.595
rtibia 26.9075
rfoot -9.77394 -12.0465
rtoes -2.09909
lfemur -3.83757 0.111036 -21.7505
ltibia 15.0026
lfoot -15.0952 17.1001
ltoes 9.77078
494
root 12.1542 18.4477 -9.174 2.31805 53.7226 -1.79429
lowerback 1.43602 -2.57883 -6.43617
upperback 3.77975 -3.28735 -2.25388
thorax 3.34068 -1.76799 1.21082
lowerneck 4.61567 -14.3225 -12.9376
upperneck 17.2534 -21.0445 11.4363
head 7.14666 -10.424 4.3009
rclavicle 1.23246e-014 1.90833e-014
rhumerus 8.43063 -26.8698 -41.3187
rradius 54.5572
rwrist 31.5454
rhand -5.37314 15.6511
rfingers 7.12502
rthumb 20.4349 -13.2936
lclavicle 1.23246e-014 1.90833e-014
lhumerus -31.9001 11.9111 70.118
lradius 23.7624
lwrist -25.5186
lhand -8.6138 30.1079
lfingers 7.12502
lthumb 17.3182 59.3563
rfemur -22.2271 3.42536 11.0776
rtibia 26.2641
rfoot -9.7692 -12.3742
rtoes -2.88039
lfemur -3.79247 0.309697 -21.6169
ltibia 14.7971
lfoot -15.1559 17.2672
ltoes 8.8261
495
root 12.1752 18.4478 -9.15365 2.22374 53.4997 -1.97159
lowerback 1.2591 -2.62141 -6.37078
upperback 3.83444 -3.32889 -2.20202
thorax 3.49941 -1.79268 1.21586
lowerneck 4.42486 -14.2637 -12.6031
upperneck 17.3165 -20.9437 11.3851
head 7.14242 -10.3497 4.23818
rclavicle 8.60738e-014 -7.95139e-015
rhumerus 9.41571 -26.7397 -41.1965
rradius 53.4951
rwrist 31.4481
rhand -4.81447 15.942
rfingers 7.12502
rthumb 20.9717 -12.9442
lclavicle 8.60738e-014 -7.95139e-015
lhumerus -31.952 11.9634 70.0855
lradius 23.5019
lwrist -25.5906
lhand -8.59999 30.4534
lfingers 7.12502
lthumb 17.3315 59.7006
rfemur -22.1566 3.20858 11.5939
rtibia 25.6215
rfoot -9.78996 -12.6195
rtoes -3.72929
lfemur -3.62834 0.247015 -21.4876
ltibia 14.6538
lfoot -15.3248 17.2295
ltoes 9.436
496
root 12.1992 18.4482 -9.13281 2.16045 53.4392 -2.05423
lowerback 1.27791 -2.71754 -6.24336
upperback 3.7233 -3.46866 -2.17781
thorax 3.37517 -1.85511 1.17186
lowerneck 4.43084 -14.1829 -12.8168
upperneck 17.6368 -20.9032 11.5934
head 7.28723 -10.3243 4.33097
rclavicle -6.02318e-014 3.97569e-014
rhumerus 10.2802 -26.411 -41.0335
rradius 52.4482
rwrist 31.3491
rhand -3.8851 16.0433
rfingers 7.12502
rthumb 21.8643 -12.7414
lclavicle -6.02318e-014 3.97569e-014
lhumerus -32.3159 13.2569 69.4383
lradius 22.962
lwrist -27.3232
lhand -8.43687 30.235
lfingers 7.12502
lthumb 17.4884 59.4684
rfemur -22.0603 2.76777 12.0424
rtibia 25.1064
rfoot -9.82453 -12.6622
rtoes -2.7373
lfemur -3.3807 0.0456576 -21.4207
ltibia 14.4486
lfoot -15.4378 17.293
ltoes 10.8302
497
root 12.2225 18.4484 -9.11413 2.03405 53.175 -2.23737
lowerback 1.27373 -2.67535 -6.0106
upperback 3.66925 -3.41684 -2.22274
thorax 3.2989 -1.81969 1.00091
lowerneck 4.61885 -14.1734 -12.7022
upperneck 17.5999 -20.951 11.8596
head 7.26589 -10.3353 4.41051
rclavicle 4.81059e-014 -4.77083e-015
rhumerus 11.0531 -26.5839 -41.0024
rradius 51.4718
rwrist 31.3848
rhand -2.33343 16.4464
rfingers 7.12502
rthumb 23.3536 -12.1568
lclavicle 4.81059e-014 -4.77083e-015
lhumerus -32.3807 14.2528 68.8533
lradius 22.2751
lwrist -28.6881
lhand -8.58848 29.4605
lfingers 7.12502
lthumb 17.3425 58.7068
rfemur -22.0843 2.47439 12.5682
rtibia 24.7042
rfoot -9.82882 -12.735
rtoes -0.0515344
lfemur -3.04985 0.0409429 -21.3057
ltibia 14.0245
lfoot -15.4572 17.6046
ltoes 11.1
